<?xml version="1.0" standalone="no"?>
<!DOCTYPE svg PUBLIC "-//W3C//DTD SVG 20010904//EN"
 "http://www.w3.org/TR/2001/REC-SVG-20010904/DTD/svg10.dtd">
<svg version="1.0" xmlns="http://www.w3.org/2000/svg"
 width="450.000000pt" height="211.000000pt" viewBox="0 0 450.000000 211.000000"
 preserveAspectRatio="xMidYMid meet">
<metadata>
Created by potrace 1.10, written by Peter Selinger 2001-2011
</metadata>
<g transform="translate(0.000000,211.000000) scale(0.050000,-0.050000)"
fill="#000000" stroke="none">
<path d="M0 2110 l0 -2110 4500 0 4500 0 0 2110 0 2110 -4500 0 -4500 0 0
-2110z m8880 10 l0 -1980 -4370 0 -4370 0 0 1980 0 1980 4370 0 4370 0 0
-1980z"/>
<path d="M2635 3485 l-5 -335 -295 -6 c-290 -5 -295 -6 -295 -50 0 -404 -47
-1088 -76 -1121 -166 -184 -438 -192 -709 -22 -140 88 -142 98 -14 104 270 13
410 210 408 575 -2 449 -59 498 -602 507 -477 8 -487 5 -487 -156 0 -164 19
-175 330 -191 319 -17 350 -36 350 -212 0 -184 -130 -258 -456 -258 -391 0
-178 -501 285 -670 213 -78 683 -100 870 -40 68 21 50 -44 -42 -147 -401 -451
-68 -982 573 -914 l129 14 41 131 c22 73 46 164 52 204 l12 73 -129 -1 c-232
0 -341 148 -163 222 206 86 486 -236 618 -711 23 -83 51 -151 63 -151 32 0
307 342 307 383 0 112 -188 419 -363 592 l-177 175 2820 0 c2807 0 2820 0
2820 40 0 40 -13 40 -2870 40 -1662 0 -2870 -7 -2870 -18 0 -10 -67 5 -150 32
l-150 50 0 568 0 568 239 0 240 0 5 215 6 215 164 6 165 6 5 -216 6 -216 155
-6 155 -6 0 532 0 532 -155 -6 -155 -6 -6 -186 -6 -186 -164 6 -164 6 -6 185
-6 185 -148 0 -149 0 -6 -335z"/>
<path d="M4072 3792 c-408 -152 -404 -872 6 -1009 458 -154 837 200 723 674
-69 288 -420 449 -729 335z m325 -241 c141 -72 143 -456 4 -530 -114 -62 -268
-2 -301 116 -82 296 83 525 297 414z"/>
<path d="M4894 3807 c-8 -8 -14 -66 -14 -130 l0 -117 160 0 159 0 6 -395 5
-395 155 -6 155 -6 0 401 0 401 161 0 161 0 -6 125 -6 125 -461 5 c-254 3
-468 0 -475 -8z"/>
<path d="M5980 3290 l0 -531 425 6 425 5 6 115 6 115 -271 0 -271 0 0 100 0
100 240 0 240 0 0 110 0 110 -240 0 -240 0 0 80 0 80 261 0 261 0 -6 115 -6
115 -415 5 -415 6 0 -531z"/>
<path d="M7014 3807 c-8 -7 -14 -246 -14 -530 l0 -517 400 0 400 0 0 130 0
130 -240 0 -239 0 -6 395 -5 395 -141 6 c-77 3 -147 -1 -155 -9z"/>
<path d="M2780 2171 l0 -451 99 0 100 0 5 239 6 240 128 -240 128 -239 107 0
107 0 0 450 0 450 -109 0 -110 0 -5 -233 -6 -233 -120 228 -120 228 -105 6
-105 6 0 -451z"/>
<path d="M3620 2170 l0 -450 110 0 110 0 0 450 0 450 -110 0 -110 0 0 -450z"/>
<path d="M3940 2511 l0 -109 115 -6 115 -6 5 -335 6 -335 109 0 110 0 0 340 0
340 110 0 110 0 0 110 0 110 -340 0 -340 0 0 -109z"/>
<path d="M4720 2170 l0 -450 300 0 300 0 0 100 0 100 -190 0 -190 0 0 90 0 90
170 0 170 0 0 90 0 90 -170 0 -170 0 0 70 0 70 180 0 180 0 0 100 0 100 -290
0 -290 0 0 -450z"/>
<path d="M5440 2168 l0 -451 242 6 243 7 66 77 c166 191 130 660 -59 775 -51
31 -101 38 -277 38 l-215 0 0 -452z m349 229 c158 -72 105 -477 -62 -477 l-67
0 0 250 c0 275 5 283 129 227z"/>
<path d="M6560 2170 l0 -450 110 0 110 0 0 450 0 450 -110 0 -110 0 0 -450z"/>
<path d="M6940 2171 l0 -451 100 0 100 0 0 245 1 245 131 -245 130 -245 109 0
109 0 0 450 0 450 -109 0 -110 0 -5 -233 -6 -233 -123 228 -123 228 -102 6
-102 6 0 -451z"/>
<path d="M7760 2170 l0 -450 99 0 100 0 5 245 6 245 130 -245 130 -245 105 0
105 0 0 450 0 450 -99 0 -100 0 -5 -245 -6 -245 -130 245 -130 245 -105 0
-105 0 0 -450z"/>
<path d="M7047 1307 c-16 -6 -10 -47 19 -138 54 -166 96 -173 145 -24 19 58
39 116 44 130 5 14 -4 25 -19 25 -17 0 -42 -40 -59 -95 l-31 -95 -26 90 c-31
103 -41 118 -73 107z"/>
<path d="M6820 1170 c0 -102 6 -130 30 -130 19 0 30 19 30 50 0 40 10 50 49
50 64 0 101 64 71 120 -16 30 -42 40 -101 40 l-79 0 0 -130z m120 50 c0 -22
-13 -40 -30 -40 -17 0 -30 18 -30 40 0 22 13 40 30 40 17 0 30 -18 30 -40z"/>
<path d="M7280 1280 c0 -11 18 -20 40 -20 35 0 40 -13 40 -110 0 -84 7 -110
30 -110 23 0 30 26 30 110 0 82 7 110 29 110 16 0 34 9 41 20 8 12 -30 20 -99
20 -61 0 -111 -9 -111 -20z"/>
<path d="M7740 1170 l0 -130 80 0 c44 0 80 9 80 20 0 11 -22 20 -50 20 -47 0
-50 6 -50 110 0 84 -7 110 -30 110 -24 0 -30 -28 -30 -130z"/>
<path d="M7900 1280 c0 -11 18 -20 40 -20 35 0 40 -13 40 -110 0 -84 7 -110
30 -110 23 0 30 26 30 110 0 97 5 110 40 110 22 0 40 9 40 20 0 11 -49 20
-110 20 -60 0 -110 -9 -110 -20z"/>
<path d="M8160 1170 l0 -130 66 0 c100 0 154 48 154 137 0 97 -28 123 -134
123 l-86 0 0 -130z m128 78 c46 -18 41 -122 -7 -147 -58 -32 -61 -28 -61 69 0
90 9 101 68 78z"/>
</g>
</svg>
